<?xml version="1.0" encoding="UTF-8"?>
<!DOCTYPE svg PUBLIC "-//W3C//DTD SVG 1.1//EN" "http://www.w3.org/Graphics/SVG/1.1/DTD/svg11.dtd">
<svg xmlns="http://www.w3.org/2000/svg" version="1.1" width="4531px" height="2584px" style="shape-rendering:geometricPrecision; text-rendering:geometricPrecision; image-rendering:optimizeQuality; fill-rule:evenodd; clip-rule:evenodd" xmlns:xlink="http://www.w3.org/1999/xlink">
<g><path style="opacity:0.995" fill="#000000" d="M 2169.5,1388.5 C 2137.8,1395.35 2108.14,1407.19 2080.5,1424C 2073.68,1428.99 2067.35,1434.49 2061.5,1440.5C 2052.45,1445.38 2043.78,1450.88 2035.5,1457C 2024.91,1467.43 2013.91,1477.27 2002.5,1486.5C 2001.83,1486.5 2001.5,1486.83 2001.5,1487.5C 1983.67,1491.73 1965.67,1495.07 1947.5,1497.5C 1954.09,1487 1962.09,1477.67 1971.5,1469.5C 2001.67,1452.58 2032.33,1436.41 2063.5,1421C 2072.95,1416.04 2080.62,1409.21 2086.5,1400.5C 2098.7,1395.15 2109.87,1388.15 2120,1379.5C 2124.12,1374.69 2124.45,1369.69 2121,1364.5C 2114.64,1359.24 2107.48,1355.4 2099.5,1353C 2088.64,1349.54 2077.64,1346.54 2066.5,1344C 2040.58,1335.19 2017.58,1321.69 1997.5,1303.5C 2014.13,1288.37 2027.96,1271.04 2039,1251.5C 2052.44,1225.95 2063.11,1199.28 2071,1171.5C 2076.47,1151.96 2081.47,1132.29 2086,1112.5C 2110.46,997.861 2134.79,883.195 2159,768.5C 2165.67,735.308 2169.84,701.808 2171.5,668C 2170.88,564.376 2119.88,523.042 2018.5,544C 1989.55,552.552 1965.05,568.052 1945,590.5C 1926.01,612.801 1911.34,637.801 1901,665.5C 1885.71,709.667 1873.37,754.667 1864,800.5C 1843.31,898.141 1822.81,995.807 1802.5,1093.5C 1791.97,1091.68 1781.63,1092.51 1771.5,1096C 1757.61,1102.41 1745.61,1111.25 1735.5,1122.5C 1709.91,1134.26 1691.08,1152.92 1679,1178.5C 1667.52,1206.85 1662.02,1236.35 1662.5,1267C 1663.43,1301.94 1667.76,1336.44 1675.5,1370.5C 1649.81,1375.51 1624.81,1382.84 1600.5,1392.5C 1584.75,1357.94 1576.59,1321.61 1576,1283.5C 1575.52,1232.11 1579.85,1181.11 1589,1130.5C 1605.43,1043.33 1622.77,956.326 1641,869.5C 1657.32,786.884 1680.32,706.218 1710,627.5C 1725.1,588.96 1744.1,552.626 1767,518.5C 1818.95,449.667 1887.45,406.167 1972.5,388C 2034.97,375.225 2097.97,371.892 2161.5,378C 2207.28,381.524 2250.28,394.191 2290.5,416C 2334.65,444.061 2362.15,483.895 2373,535.5C 2381.36,575.804 2383.69,616.471 2380,657.5C 2375.71,706.554 2368.71,755.22 2359,803.5C 2345,871.5 2331,939.5 2317,1007.5C 2303.08,1075.18 2285.41,1141.84 2264,1207.5C 2248.54,1255.09 2228.2,1300.42 2203,1343.5C 2192.75,1359.24 2181.58,1374.24 2169.5,1388.5 Z M 1997.5,1303.5 C 1980.8,1289.3 1965.63,1273.64 1952,1256.5C 1925.85,1222.19 1900.18,1187.52 1875,1152.5C 1860.46,1132.29 1842.96,1115.12 1822.5,1101C 1816.22,1097.41 1809.56,1094.91 1802.5,1093.5C 1822.81,995.807 1843.31,898.141 1864,800.5C 1873.37,754.667 1885.71,709.667 1901,665.5C 1911.34,637.801 1926.01,612.801 1945,590.5C 1965.05,568.052 1989.55,552.552 2018.5,544C 2119.88,523.042 2170.88,564.376 2171.5,668C 2169.84,701.808 2165.67,735.308 2159,768.5C 2134.79,883.195 2110.46,997.861 2086,1112.5C 2081.47,1132.29 2076.47,1151.96 2071,1171.5C 2063.11,1199.28 2052.44,1225.95 2039,1251.5C 2027.96,1271.04 2014.13,1288.37 1997.5,1303.5 Z"/></g>
<g><path style="opacity:0.995" fill="#000000" d="M 3267.5,397.5 C 3315.85,394.308 3363.51,398.475 3410.5,410C 3442.8,418.722 3470.3,435.222 3493,459.5C 3512.62,484.33 3523.62,512.663 3526,544.5C 3528.19,576.629 3525.35,608.296 3517.5,639.5C 3454.83,639.5 3392.17,639.5 3329.5,639.5C 3343.99,575.486 3318.66,547.986 3253.5,557C 3209.27,564.515 3176.11,587.682 3154,626.5C 3145.06,643.381 3138.06,661.048 3133,679.5C 3120.28,725.72 3109.45,772.386 3100.5,819.5C 3100.73,820.932 3101.4,821.432 3102.5,821C 3119.02,805.803 3136.69,792.137 3155.5,780C 3180.3,765.733 3206.97,757.066 3235.5,754C 3278.56,748.572 3320.56,752.906 3361.5,767C 3410.59,788.114 3440.76,824.947 3452,877.5C 3459.45,913.851 3461.45,950.518 3458,987.5C 3447.52,1087.43 3423.85,1184.1 3387,1277.5C 3368.66,1322.55 3343.99,1363.55 3313,1400.5C 3263.21,1453.48 3202.04,1484.98 3129.5,1495C 3083.83,1500.97 3038.16,1500.97 2992.5,1495C 2896.04,1479.54 2839.87,1423.71 2824,1327.5C 2818.96,1281.1 2819.63,1234.77 2826,1188.5C 2828.57,1169.1 2831.57,1149.77 2835,1130.5C 2860.85,1006.25 2887.85,882.248 2916,758.5C 2932.94,690.016 2957.94,624.683 2991,562.5C 3039.6,473.631 3114.1,420.798 3214.5,404C 3232.25,401.24 3249.91,399.073 3267.5,397.5 Z M 3166.5,911.5 C 3224.33,905.01 3254.33,930.677 3256.5,988.5C 3253.05,1025.2 3247.22,1061.54 3239,1097.5C 3228.21,1152.8 3214.87,1207.46 3199,1261.5C 3174.75,1321.72 3130.25,1347.55 3065.5,1339C 3044.94,1334.77 3030.78,1322.94 3023,1303.5C 3016.9,1284.97 3014.9,1265.97 3017,1246.5C 3027.42,1162.82 3045.42,1080.82 3071,1000.5C 3080.81,969.388 3098.97,944.554 3125.5,926C 3138.37,918.544 3152.04,913.711 3166.5,911.5 Z"/></g>
<g><path style="opacity:0.995" fill="#000000" d="M 3973.5,397.5 C 3994.84,397.333 4016.17,397.5 4037.5,398C 4177.46,408.469 4246.13,483.969 4243.5,624.5C 4242.43,680.853 4235.59,736.52 4223,791.5C 4203.18,884.466 4183.51,977.466 4164,1070.5C 4148.15,1147.71 4124.48,1222.38 4093,1294.5C 4075.35,1332.43 4053.35,1367.43 4027,1399.5C 3983.24,1447.14 3929.41,1477.31 3865.5,1490C 3820.58,1498.97 3775.25,1501.97 3729.5,1499C 3574.46,1489.41 3514.13,1408.91 3548.5,1257.5C 3611.16,1256.33 3673.83,1256.17 3736.5,1257C 3721.59,1312.6 3742.93,1340.76 3800.5,1341.5C 3843.01,1340.5 3876.51,1322.83 3901,1288.5C 3915.09,1267.65 3925.42,1244.99 3932,1220.5C 3945.31,1171.95 3956.31,1122.95 3965,1073.5C 3946.31,1089.43 3926.81,1104.26 3906.5,1118C 3879.27,1132.39 3850.27,1140.73 3819.5,1143C 3676.82,1153.48 3605.15,1087.31 3604.5,944.5C 3610,824.827 3636.83,710.16 3685,600.5C 3705.82,553.329 3734.66,511.829 3771.5,476C 3812.56,440.471 3859.89,417.138 3913.5,406C 3933.51,402.168 3953.51,399.335 3973.5,397.5 Z M 3969.5,555.5 C 3989.64,553.954 4007.97,558.787 4024.5,570C 4038.03,583.235 4045.53,599.402 4047,618.5C 4048.32,639.995 4046.98,661.329 4043,682.5C 4033.03,745.329 4019.37,807.329 4002,868.5C 3997.26,883.727 3991.92,898.727 3986,913.5C 3959.02,970.451 3914.52,992.951 3852.5,981C 3831.93,974.098 3818.43,960.264 3812,939.5C 3809.39,928.993 3807.89,918.327 3807.5,907.5C 3809.61,880.918 3813.44,854.585 3819,828.5C 3829.47,774.817 3841.47,721.484 3855,668.5C 3860.36,643.059 3870.36,619.726 3885,598.5C 3906.99,572.087 3935.16,557.754 3969.5,555.5 Z"/></g>
<g><path style="opacity:0.996" fill="#000000" d="M 1401.5,1425.5 C 1359.36,1428.3 1317.2,1430.64 1275,1432.5C 1253.47,1431.95 1231.97,1430.79 1210.5,1429C 1197.91,1427.89 1185.58,1426.05 1173.5,1423.5C 1144.83,1300.48 1115.99,1177.48 1087,1054.5C 1056.38,1092.79 1025.38,1130.79 994,1168.5C 982.718,1219.08 971.884,1269.75 961.5,1320.5C 957.153,1316.31 953.32,1311.65 950,1306.5C 951.066,1319.33 953.233,1332 956.5,1344.5C 954.053,1354.05 951.72,1363.71 949.5,1373.5C 935.466,1361.97 922.966,1348.97 912,1334.5C 912.973,1353.07 916.807,1371.07 923.5,1388.5C 923.376,1389.11 923.043,1389.44 922.5,1389.5C 917.324,1380.47 913.824,1370.81 912,1360.5C 910.896,1342.85 909.896,1325.18 909,1307.5C 905.137,1277.07 890.637,1253.4 865.5,1236.5C 848.154,1207.13 829.821,1178.46 810.5,1150.5C 854.326,1185.82 894.826,1224.82 932,1267.5C 901.407,1198.5 860.907,1134.83 810.5,1076.5C 858.294,851.528 905.961,626.528 953.5,401.5C 1020.83,401.5 1088.17,401.5 1155.5,401.5C 1122.36,560.03 1089.03,718.53 1055.5,877C 1055.83,877.5 1056.17,878 1056.5,878.5C 1086.6,829.959 1118.43,782.626 1152,736.5C 1234.71,624.911 1317.54,513.411 1400.5,402C 1476.83,401.333 1553.17,401.333 1629.5,402C 1508.67,555.5 1387.83,709 1267,862.5C 1311.03,1050.3 1355.87,1237.96 1401.5,1425.5 Z"/></g>
<g><path style="opacity:0.995" fill="#000000" d="M 2636.5,401.5 C 2698.83,401.5 2761.17,401.5 2823.5,401.5C 2811.71,457.806 2800.04,514.139 2788.5,570.5C 2725.83,570.5 2663.17,570.5 2600.5,570.5C 2612.25,514.085 2624.25,457.752 2636.5,401.5 Z"/></g>
<g><path style="opacity:0.99" fill="#e6e8e9" d="M 810.5,1076.5 C 860.907,1134.83 901.407,1198.5 932,1267.5C 894.826,1224.82 854.326,1185.82 810.5,1150.5C 796.919,1133.41 782.752,1116.75 768,1100.5C 744.341,1075.29 717.841,1053.79 688.5,1036C 678.495,1031.08 668.328,1026.58 658,1022.5C 563.443,819.694 404.943,702.861 182.5,672C 151.109,668.579 119.776,666.746 88.5,666.5C 85.0333,658.433 82.3667,650.1 80.5,641.5C 194.157,631.998 303.157,650.165 407.5,696C 526.453,752.954 616.62,839.787 678,956.5C 684.439,969.044 690.606,981.711 696.5,994.5C 715.608,1001.05 733.274,1010.22 749.5,1022C 771.543,1038.21 791.876,1056.37 810.5,1076.5 Z"/></g>
<g><path style="opacity:0.997" fill="#050708" d="M 88.5,666.5 C 119.776,666.746 151.109,668.579 182.5,672C 404.943,702.861 563.443,819.694 658,1022.5C 668.328,1026.58 678.495,1031.08 688.5,1036C 717.841,1053.79 744.341,1075.29 768,1100.5C 782.752,1116.75 796.919,1133.41 810.5,1150.5C 829.821,1178.46 848.154,1207.13 865.5,1236.5C 873.874,1253.57 882.707,1270.91 892,1288.5C 892.788,1290.16 893.122,1291.83 893,1293.5C 873.894,1272.39 854.06,1251.89 833.5,1232C 830.83,1231.46 828.33,1231.96 826,1233.5C 823.495,1232.58 820.995,1232.08 818.5,1232C 813.755,1240.66 809.422,1249.49 805.5,1258.5C 796.658,1259.23 787.991,1260.23 779.5,1261.5C 775.392,1270.05 771.059,1278.39 766.5,1286.5C 773.079,1254.11 779.579,1221.77 786,1189.5C 756.689,1163.58 724.523,1141.75 689.5,1124C 674.631,1116.87 658.965,1113.37 642.5,1113.5C 620.657,1116.18 607.157,1128.18 602,1149.5C 601.5,1158.83 601.334,1168.16 601.5,1177.5C 603.143,1194.35 605.976,1211.02 610,1227.5C 614.889,1246.74 620.222,1265.74 626,1284.5C 614.961,1255.56 597.461,1231.4 573.5,1212C 558.877,1201.23 542.544,1194.57 524.5,1192C 463.973,1195.06 403.973,1190.72 344.5,1179C 279.544,1167.68 216.544,1149.68 155.5,1125C 138.691,1117.77 123.024,1108.77 108.5,1098C 105.781,1095.62 103.447,1092.95 101.5,1090C 116.587,1074.08 133.587,1060.58 152.5,1049.5C 213.323,1015.45 278.323,993.113 347.5,982.5C 336.125,978.472 324.791,974.472 313.5,970.5C 193.315,917.482 107.482,830.482 56,709.5C 50.3964,696.522 45.8964,683.189 42.5,669.5C 57.8354,668.326 73.1688,667.326 88.5,666.5 Z"/></g>
<g><path style="opacity:0.995" fill="#000000" d="M 2583.5,1477.5 C 2552.03,1446.57 2515.36,1423.4 2473.5,1408C 2457.99,1402.57 2442.32,1397.74 2426.5,1393.5C 2477.34,1152.12 2528.51,910.783 2580,669.5C 2642.43,668.502 2704.93,668.169 2767.5,668.5C 2710.66,937.883 2653.49,1207.22 2596,1476.5C 2591.93,1477.46 2587.77,1477.8 2583.5,1477.5 Z"/></g>
<g><path style="opacity:0.96" fill="#e4e6e7" d="M 313.5,970.5 C 324.791,974.472 336.125,978.472 347.5,982.5C 278.323,993.113 213.323,1015.45 152.5,1049.5C 176.935,1028.97 203.935,1012.13 233.5,999C 259.416,987.417 286.082,977.917 313.5,970.5 Z"/></g>
<g><path style="opacity:0.993" fill="#e5e7e8" d="M 1802.5,1093.5 C 1809.56,1094.91 1816.22,1097.41 1822.5,1101C 1842.96,1115.12 1860.46,1132.29 1875,1152.5C 1900.18,1187.52 1925.85,1222.19 1952,1256.5C 1965.63,1273.64 1980.8,1289.3 1997.5,1303.5C 2017.58,1321.69 2040.58,1335.19 2066.5,1344C 2077.64,1346.54 2088.64,1349.54 2099.5,1353C 2107.48,1355.4 2114.64,1359.24 2121,1364.5C 2124.45,1369.69 2124.12,1374.69 2120,1379.5C 2109.87,1388.15 2098.7,1395.15 2086.5,1400.5C 2085.33,1395.79 2082.66,1391.96 2078.5,1389C 2063.71,1381.11 2048.05,1375.77 2031.5,1373C 2003.27,1364.06 1978.27,1349.72 1956.5,1330C 1930.64,1305.73 1907.48,1279.23 1887,1250.5C 1865.15,1218.98 1842.15,1188.32 1818,1158.5C 1807.97,1146.79 1796.47,1136.96 1783.5,1129C 1768.05,1120.48 1752.05,1118.31 1735.5,1122.5C 1745.61,1111.25 1757.61,1102.41 1771.5,1096C 1781.63,1092.51 1791.97,1091.68 1802.5,1093.5 Z"/></g>
<g><path style="opacity:0.98" fill="#e6e8e9" d="M 642.5,1113.5 C 638.088,1140.94 639.754,1167.94 647.5,1194.5C 641.259,1196.41 636.925,1200.41 634.5,1206.5C 625.059,1195.06 614.059,1185.39 601.5,1177.5C 601.334,1168.16 601.5,1158.83 602,1149.5C 607.157,1128.18 620.657,1116.18 642.5,1113.5 Z"/></g>
<g><path style="opacity:0.998" fill="#050708" d="M 2086.5,1400.5 C 2080.62,1409.21 2072.95,1416.04 2063.5,1421C 2032.33,1436.41 2001.67,1452.58 1971.5,1469.5C 1943.76,1484.74 1921.26,1505.74 1904,1532.5C 1900.93,1538.64 1898.43,1544.97 1896.5,1551.5C 1891.81,1565.69 1882.14,1574.52 1867.5,1578C 1845.82,1581.45 1824.49,1579.79 1803.5,1573C 1766.33,1561.25 1730.67,1545.92 1696.5,1527C 1642.93,1497.73 1591.6,1465.23 1542.5,1429.5C 1558.58,1422.03 1574.91,1415.37 1591.5,1409.5C 1611.83,1403.53 1632.5,1399.03 1653.5,1396C 1663.08,1395.17 1672.58,1395.67 1682,1397.5C 1682.5,1397.17 1683,1396.83 1683.5,1396.5C 1680.76,1387.74 1678.1,1379.07 1675.5,1370.5C 1667.76,1336.44 1663.43,1301.94 1662.5,1267C 1662.02,1236.35 1667.52,1206.85 1679,1178.5C 1691.08,1152.92 1709.91,1134.26 1735.5,1122.5C 1752.05,1118.31 1768.05,1120.48 1783.5,1129C 1796.47,1136.96 1807.97,1146.79 1818,1158.5C 1842.15,1188.32 1865.15,1218.98 1887,1250.5C 1907.48,1279.23 1930.64,1305.73 1956.5,1330C 1978.27,1349.72 2003.27,1364.06 2031.5,1373C 2048.05,1375.77 2063.71,1381.11 2078.5,1389C 2082.66,1391.96 2085.33,1395.79 2086.5,1400.5 Z"/></g>
<g><path style="opacity:0.989" fill="#e5e7e8" d="M 762.5,1293.5 C 754.043,1314.04 745.876,1334.7 738,1355.5C 729.379,1382.7 735.546,1405.7 756.5,1424.5C 754.829,1442.5 746.495,1456.5 731.5,1466.5C 730.265,1465.66 729.265,1464.66 728.5,1463.5C 726.088,1458.34 723.421,1453.34 720.5,1448.5C 721.261,1411.18 721.761,1373.84 722,1336.5C 722.531,1327.78 723.531,1319.11 725,1310.5C 731.366,1292.34 733.7,1273.67 732,1254.5C 727.981,1232.95 716.481,1216.78 697.5,1206C 689.275,1202.21 680.941,1199.04 672.5,1196.5C 672.334,1190.82 672.501,1185.16 673,1179.5C 675.828,1170.24 682.161,1165.91 692,1166.5C 718.507,1166.88 740.507,1176.88 758,1196.5C 770.125,1214.79 774.125,1234.79 770,1256.5C 766.704,1268.68 764.204,1281.01 762.5,1293.5 Z"/></g>
<g><path style="opacity:0.991" fill="#050708" d="M 647.5,1194.5 C 655.91,1194.36 664.243,1195.03 672.5,1196.5C 680.941,1199.04 689.275,1202.21 697.5,1206C 716.481,1216.78 727.981,1232.95 732,1254.5C 733.7,1273.67 731.366,1292.34 725,1310.5C 723.531,1319.11 722.531,1327.78 722,1336.5C 721.761,1373.84 721.261,1411.18 720.5,1448.5C 718.234,1460.12 714.067,1471.12 708,1481.5C 704.183,1487.24 699.183,1491.57 693,1494.5C 672.142,1459.45 654.475,1422.78 640,1384.5C 634.047,1369.19 630.547,1353.36 629.5,1337C 628.21,1326.75 631.71,1318.58 640,1312.5C 643.469,1306.12 645.302,1299.29 645.5,1292C 642.905,1271.36 639.405,1250.86 635,1230.5C 633.433,1222.51 633.266,1214.51 634.5,1206.5C 636.925,1200.41 641.259,1196.41 647.5,1194.5 Z"/></g>
<g><path style="opacity:0.997" fill="#e5e6e7" d="M 865.5,1236.5 C 890.637,1253.4 905.137,1277.07 909,1307.5C 909.896,1325.18 910.896,1342.85 912,1360.5C 913.824,1370.81 917.324,1380.47 922.5,1389.5C 930.728,1405.62 939.728,1421.29 949.5,1436.5C 952.249,1445.98 953.083,1455.64 952,1465.5C 946.445,1488.88 934.611,1492.88 916.5,1477.5C 915.71,1476.6 914.71,1475.93 913.5,1475.5C 911.228,1463.62 906.728,1452.62 900,1442.5C 888.197,1427.56 879.531,1410.9 874,1392.5C 872.08,1374.23 871.08,1355.89 871,1337.5C 867.571,1312.48 857.071,1290.98 839.5,1273C 829.658,1264.58 818.325,1259.74 805.5,1258.5C 809.422,1249.49 813.755,1240.66 818.5,1232C 820.995,1232.08 823.495,1232.58 826,1233.5C 828.33,1231.96 830.83,1231.46 833.5,1232C 854.06,1251.89 873.894,1272.39 893,1293.5C 893.122,1291.83 892.788,1290.16 892,1288.5C 882.707,1270.91 873.874,1253.57 865.5,1236.5 Z"/></g>
<g><path style="opacity:0.998" fill="#eb2128" d="M 805.5,1258.5 C 818.325,1259.74 829.658,1264.58 839.5,1273C 857.071,1290.98 867.571,1312.48 871,1337.5C 871.08,1355.89 872.08,1374.23 874,1392.5C 879.531,1410.9 888.197,1427.56 900,1442.5C 906.728,1452.62 911.228,1463.62 913.5,1475.5C 913.328,1476.49 913.662,1477.16 914.5,1477.5C 915.934,1489.94 912.934,1501.1 905.5,1511C 903.182,1512.99 900.516,1514.16 897.5,1514.5C 894.031,1514.45 890.698,1513.79 887.5,1512.5C 887.158,1511.66 886.492,1511.33 885.5,1511.5C 871.934,1500.94 858.934,1489.61 846.5,1477.5C 840.246,1471.43 833.246,1466.26 825.5,1462C 808.802,1453.98 792.136,1445.98 775.5,1438C 768.786,1433.98 762.453,1429.48 756.5,1424.5C 735.546,1405.7 729.379,1382.7 738,1355.5C 745.876,1334.7 754.043,1314.04 762.5,1293.5C 764.1,1291.3 765.433,1288.96 766.5,1286.5C 771.059,1278.39 775.392,1270.05 779.5,1261.5C 787.991,1260.23 796.658,1259.23 805.5,1258.5 Z"/></g>
<g><path style="opacity:0.985" fill="#e5e7e8" d="M 961.5,1320.5 C 990.616,1351.09 1024.62,1374.92 1063.5,1392C 1098.81,1407.27 1135.47,1417.77 1173.5,1423.5C 1185.58,1426.05 1197.91,1427.89 1210.5,1429C 1231.97,1430.79 1253.47,1431.95 1275,1432.5C 1317.2,1430.64 1359.36,1428.3 1401.5,1425.5C 1438.11,1423.18 1474.44,1425.35 1510.5,1432C 1529.16,1435.41 1545,1443.91 1558,1457.5C 1564.49,1468.38 1566.49,1480.04 1564,1492.5C 1559.7,1509.42 1552.7,1525.08 1543,1539.5C 1535.05,1551.11 1526.72,1562.45 1518,1573.5C 1501.71,1592.8 1485.04,1611.8 1468,1630.5C 1460.08,1640.67 1453.41,1651.67 1448,1663.5C 1439.92,1681.71 1440.92,1699.38 1451,1716.5C 1456.59,1724.1 1462.93,1731.1 1470,1737.5C 1475.71,1744.04 1474.21,1747.54 1465.5,1748C 1447.21,1751.38 1429.54,1749.55 1412.5,1742.5C 1410.83,1741.66 1409.66,1740.32 1409,1738.5C 1401.61,1717.89 1403.61,1698.22 1415,1679.5C 1420.51,1670.48 1426.51,1661.82 1433,1653.5C 1455.12,1629.72 1476.12,1605.05 1496,1579.5C 1509.99,1561.19 1519.99,1540.86 1526,1518.5C 1528.78,1498.91 1521.95,1483.74 1505.5,1473C 1485.17,1462.34 1463.5,1456.34 1440.5,1455C 1387.72,1452.18 1335.06,1453.52 1282.5,1459C 1216.19,1463.9 1150.86,1458.24 1086.5,1442C 1047.86,1431.84 1011.86,1416.01 978.5,1394.5C 978.5,1393.83 978.167,1393.5 977.5,1393.5C 977.5,1392.83 977.167,1392.5 976.5,1392.5C 967.692,1377.41 961.026,1361.41 956.5,1344.5C 953.233,1332 951.066,1319.33 950,1306.5C 953.32,1311.65 957.153,1316.31 961.5,1320.5 Z"/></g>
<g><path style="opacity:0.996" fill="#050708" d="M 949.5,1373.5 C 958.004,1380.58 967.004,1386.91 976.5,1392.5C 977.167,1392.5 977.5,1392.83 977.5,1393.5C 978.167,1393.5 978.5,1393.83 978.5,1394.5C 1011.86,1416.01 1047.86,1431.84 1086.5,1442C 1150.86,1458.24 1216.19,1463.9 1282.5,1459C 1335.06,1453.52 1387.72,1452.18 1440.5,1455C 1463.5,1456.34 1485.17,1462.34 1505.5,1473C 1521.95,1483.74 1528.78,1498.91 1526,1518.5C 1519.99,1540.86 1509.99,1561.19 1496,1579.5C 1476.12,1605.05 1455.12,1629.72 1433,1653.5C 1426.51,1661.82 1420.51,1670.48 1415,1679.5C 1403.61,1698.22 1401.61,1717.89 1409,1738.5C 1409.66,1740.32 1410.83,1741.66 1412.5,1742.5C 1413.72,1745.27 1415.22,1747.94 1417,1750.5C 1423.03,1756.2 1428.7,1762.2 1434,1768.5C 1435.14,1771.53 1434.31,1773.69 1431.5,1775C 1406.09,1780.94 1382.42,1776.94 1360.5,1763C 1344.18,1751.69 1329.35,1738.52 1316,1723.5C 1289.43,1691.35 1263.09,1659.02 1237,1626.5C 1217.9,1603.72 1196.06,1584.22 1171.5,1568C 1140.19,1553.18 1108.52,1539.18 1076.5,1526C 1041.89,1511.04 1009.89,1492.04 980.5,1469C 968.899,1459.23 958.566,1448.4 949.5,1436.5C 939.728,1421.29 930.728,1405.62 922.5,1389.5C 923.043,1389.44 923.376,1389.11 923.5,1388.5C 916.807,1371.07 912.973,1353.07 912,1334.5C 922.966,1348.97 935.466,1361.97 949.5,1373.5 Z"/></g>
<g><path style="opacity:0.989" fill="#e2e4e5" d="M 1675.5,1370.5 C 1678.1,1379.07 1680.76,1387.74 1683.5,1396.5C 1683,1396.83 1682.5,1397.17 1682,1397.5C 1672.58,1395.67 1663.08,1395.17 1653.5,1396C 1632.5,1399.03 1611.83,1403.53 1591.5,1409.5C 1587.29,1407.56 1583.63,1404.9 1580.5,1401.5C 1587.18,1398.49 1593.85,1395.49 1600.5,1392.5C 1624.81,1382.84 1649.81,1375.51 1675.5,1370.5 Z"/></g>
<g><path style="opacity:0.988" fill="#e6e7e8" d="M 2426.5,1393.5 C 2442.32,1397.74 2457.99,1402.57 2473.5,1408C 2515.36,1423.4 2552.03,1446.57 2583.5,1477.5C 2626.69,1528.95 2639.19,1587.29 2621,1652.5C 2610.32,1684.55 2593.98,1713.22 2572,1738.5C 2545.6,1767.75 2516.1,1793.08 2483.5,1814.5C 2514.82,1788.68 2541.32,1758.68 2563,1724.5C 2593.03,1672.2 2598.36,1617.53 2579,1560.5C 2563.61,1525.11 2540.11,1496.27 2508.5,1474C 2469.88,1448.36 2427.88,1430.36 2382.5,1420C 2291.64,1398.73 2200.98,1399.39 2110.5,1422C 2093.65,1426.89 2077.32,1433.06 2061.5,1440.5C 2067.35,1434.49 2073.68,1428.99 2080.5,1424C 2108.14,1407.19 2137.8,1395.35 2169.5,1388.5C 2255.57,1371.19 2341.24,1372.86 2426.5,1393.5 Z"/></g>
<g><path style="opacity:0.998" fill="#ec2028" d="M 2483.5,1814.5 C 2432.83,1853.86 2377.83,1886.7 2318.5,1913C 2250.58,1943.36 2180.58,1967.86 2108.5,1986.5C 2102.42,1987.85 2096.42,1989.52 2090.5,1991.5C 2083.09,1979.59 2080.59,1966.59 2083,1952.5C 2084.47,1945.58 2086.64,1938.91 2089.5,1932.5C 2093.82,1924.52 2098.66,1916.86 2104,1909.5C 2115.1,1896.31 2126.43,1883.31 2138,1870.5C 2141.71,1866.11 2143.37,1861.11 2143,1855.5C 2141.46,1853.62 2139.62,1852.12 2137.5,1851C 2097.07,1841.43 2059.74,1825.09 2025.5,1802C 2017.19,1796.03 2010.69,1788.53 2006,1779.5C 2005.42,1777.35 2004.92,1775.18 2004.5,1773C 2006.18,1767.98 2007.84,1762.98 2009.5,1758C 2007.34,1749.15 2002.68,1741.82 1995.5,1736C 1966.12,1715.15 1933.78,1700.48 1898.5,1692C 1884.9,1688.95 1871.24,1686.28 1857.5,1684C 1847.5,1680.17 1843.67,1673.01 1846,1662.5C 1849.4,1651.7 1854.4,1641.7 1861,1632.5C 1872.95,1616.94 1885.62,1601.94 1899,1587.5C 1932.57,1553.35 1966.73,1520.01 2001.5,1487.5C 2002.17,1487.5 2002.5,1487.17 2002.5,1486.5C 2013.91,1477.27 2024.91,1467.43 2035.5,1457C 2043.78,1450.88 2052.45,1445.38 2061.5,1440.5C 2077.32,1433.06 2093.65,1426.89 2110.5,1422C 2200.98,1399.39 2291.64,1398.73 2382.5,1420C 2427.88,1430.36 2469.88,1448.36 2508.5,1474C 2540.11,1496.27 2563.61,1525.11 2579,1560.5C 2598.36,1617.53 2593.03,1672.2 2563,1724.5C 2541.32,1758.68 2514.82,1788.68 2483.5,1814.5 Z"/></g>
<g><path style="opacity:0.998" fill="#030202" d="M 756.5,1424.5 C 762.453,1429.48 768.786,1433.98 775.5,1438C 792.136,1445.98 808.802,1453.98 825.5,1462C 833.246,1466.26 840.246,1471.43 846.5,1477.5C 806.167,1477.5 765.833,1477.5 725.5,1477.5C 726.501,1472.83 727.501,1468.16 728.5,1463.5C 729.265,1464.66 730.265,1465.66 731.5,1466.5C 746.495,1456.5 754.829,1442.5 756.5,1424.5 Z"/></g>
<g><path style="opacity:0.969" fill="#e3e5e6" d="M 1971.5,1469.5 C 1962.09,1477.67 1954.09,1487 1947.5,1497.5C 1940.33,1510.16 1933.83,1523.16 1928,1536.5C 1919.59,1545.81 1909.09,1550.81 1896.5,1551.5C 1898.43,1544.97 1900.93,1538.64 1904,1532.5C 1921.26,1505.74 1943.76,1484.74 1971.5,1469.5 Z"/></g>
<g><path style="opacity:1" fill="#343130" d="M 913.5,1475.5 C 914.71,1475.93 915.71,1476.6 916.5,1477.5C 915.833,1477.5 915.167,1477.5 914.5,1477.5C 913.662,1477.16 913.328,1476.49 913.5,1475.5 Z"/></g>
<g><path style="opacity:0.985" fill="#e7e8e9" d="M 1917.5,1787.5 C 1918.43,1784.89 1918.6,1782.22 1918,1779.5C 1910.53,1769.71 1901.03,1762.54 1889.5,1758C 1870.61,1752.04 1852.28,1744.7 1834.5,1736C 1820.58,1726.97 1809.74,1715.14 1802,1700.5C 1791.53,1678.22 1780.53,1656.22 1769,1634.5C 1757.96,1616.8 1743.13,1603.3 1724.5,1594C 1685.09,1573.3 1646.09,1552.13 1607.5,1530.5C 1615.13,1519.39 1620.47,1507.23 1623.5,1494C 1622.81,1492.84 1622.65,1491.67 1623,1490.5C 1667.26,1514.72 1711.76,1538.55 1756.5,1562C 1778.42,1572.59 1795.92,1588.09 1809,1608.5C 1819.26,1628.68 1829.26,1649.01 1839,1669.5C 1849.28,1689.78 1864.78,1704.61 1885.5,1714C 1904.39,1719.96 1922.72,1727.3 1940.5,1736C 1948.11,1740.44 1953.78,1746.61 1957.5,1754.5C 1952.82,1768.68 1943.49,1778.51 1929.5,1784C 1925.57,1785.48 1921.57,1786.64 1917.5,1787.5 Z"/></g>
<g><path style="opacity:0.985" fill="#e7e8e9" d="M 885.5,1511.5 C 885.842,1512.34 886.508,1512.67 887.5,1512.5C 890.698,1513.79 894.031,1514.45 897.5,1514.5C 1002.33,1544.98 1097.33,1593.81 1182.5,1661C 1187.94,1666.07 1192.28,1671.9 1195.5,1678.5C 1195.39,1679.44 1195.06,1680.28 1194.5,1681C 1193,1681.5 1191.5,1682 1190,1682.5C 1172.15,1677.01 1160.31,1683.01 1154.5,1700.5C 1145.35,1691.19 1135.69,1682.36 1125.5,1674C 1042.02,1613.43 950.352,1569.1 850.5,1541C 821.468,1534.5 792.135,1530.66 762.5,1529.5C 758.636,1522.94 754.636,1516.44 750.5,1510C 761.838,1506.13 773.505,1503.8 785.5,1503C 799.833,1502.33 814.167,1502.33 828.5,1503C 847.676,1504.75 866.676,1507.59 885.5,1511.5 Z"/></g>
<g><path style="opacity:0.996" fill="#ec2028" d="M 1607.5,1530.5 C 1646.09,1552.13 1685.09,1573.3 1724.5,1594C 1743.13,1603.3 1757.96,1616.8 1769,1634.5C 1780.53,1656.22 1791.53,1678.22 1802,1700.5C 1809.74,1715.14 1820.58,1726.97 1834.5,1736C 1852.28,1744.7 1870.61,1752.04 1889.5,1758C 1901.03,1762.54 1910.53,1769.71 1918,1779.5C 1918.6,1782.22 1918.43,1784.89 1917.5,1787.5C 1910.7,1800.78 1900.04,1809.61 1885.5,1814C 1881.2,1815.16 1876.87,1816.16 1872.5,1817C 1838.6,1816.89 1805.6,1822.22 1773.5,1833C 1747.84,1843.22 1721.51,1851.22 1694.5,1857C 1678.74,1859.15 1663.08,1858.98 1647.5,1856.5C 1635.73,1853.53 1626.23,1847.2 1619,1837.5C 1615.24,1831.64 1611.74,1825.64 1608.5,1819.5C 1608.5,1818.83 1608.17,1818.5 1607.5,1818.5C 1607.5,1817.83 1607.17,1817.5 1606.5,1817.5C 1600.26,1805.41 1591.59,1795.25 1580.5,1787C 1561.82,1774.99 1542.48,1763.99 1522.5,1754C 1507.18,1745.35 1494.35,1733.85 1484,1719.5C 1472.96,1700.16 1471.62,1680.16 1480,1659.5C 1487.2,1643.76 1496.87,1629.76 1509,1617.5C 1528.93,1600.9 1547.6,1582.9 1565,1563.5C 1576.37,1550.43 1583.04,1535.43 1585,1518.5C 1592.29,1522.89 1599.79,1526.89 1607.5,1530.5 Z"/></g>
<g><path style="opacity:0.996" fill="#ec2028" d="M 762.5,1529.5 C 792.135,1530.66 821.468,1534.5 850.5,1541C 950.352,1569.1 1042.02,1613.43 1125.5,1674C 1135.69,1682.36 1145.35,1691.19 1154.5,1700.5C 1156.64,1702.89 1157.3,1705.56 1156.5,1708.5C 1155.31,1709.43 1153.98,1709.76 1152.5,1709.5C 1134.91,1704.05 1122.74,1709.72 1116,1726.5C 1114.67,1732.5 1113.33,1738.5 1112,1744.5C 1110.47,1761.29 1108.13,1777.96 1105,1794.5C 1102.65,1803.05 1099.82,1811.38 1096.5,1819.5C 1089.7,1832.78 1079.03,1841.62 1064.5,1846C 1040.16,1850.67 1016.5,1848.33 993.5,1839C 963.818,1825.3 936.818,1807.63 912.5,1786C 877.46,1754.3 845.294,1720.13 816,1683.5C 779.213,1637.26 744.88,1589.26 713,1539.5C 712.383,1538.55 712.549,1537.72 713.5,1537C 729.693,1532.63 746.026,1530.13 762.5,1529.5 Z"/></g>
<g><path style="opacity:0.915" fill="#000000" d="M 3175.5,1625.5 C 3225.41,1621.2 3253.58,1643.87 3260,1693.5C 3261.19,1708.14 3261.69,1722.81 3261.5,1737.5C 3257.5,1737.5 3253.5,1737.5 3249.5,1737.5C 3250.3,1718.36 3249.14,1699.36 3246,1680.5C 3236.03,1646.25 3213.19,1631.75 3177.5,1637C 3152.07,1642.77 3137.24,1658.6 3133,1684.5C 3132.09,1688.79 3131.42,1693.13 3131,1697.5C 3130.33,1763.5 3130.33,1829.5 3131,1895.5C 3136.32,1943.82 3162.82,1963.32 3210.5,1954C 3227.4,1948.1 3238.57,1936.6 3244,1919.5C 3245.71,1913.93 3247.05,1908.26 3248,1902.5C 3249.37,1883.53 3249.87,1864.53 3249.5,1845.5C 3253.5,1845.5 3257.5,1845.5 3261.5,1845.5C 3261.75,1863.86 3261.25,1882.19 3260,1900.5C 3252.04,1952.77 3221.87,1974.61 3169.5,1966C 3141.52,1957 3125.35,1937.84 3121,1908.5C 3120.09,1902.53 3119.43,1896.53 3119,1890.5C 3118.33,1827.83 3118.33,1765.17 3119,1702.5C 3119.28,1680.31 3126.28,1660.64 3140,1643.5C 3150.21,1634.15 3162.04,1628.15 3175.5,1625.5 Z"/></g>
<g><path style="opacity:0.909" fill="#000000" d="M 3580.5,1625.5 C 3633.35,1621.34 3662.18,1645.68 3667,1698.5C 3667.67,1763.83 3667.67,1829.17 3667,1894.5C 3660.91,1950.25 3630.08,1974.08 3574.5,1966C 3547.98,1958.15 3531.82,1940.65 3526,1913.5C 3524.35,1906.26 3523.35,1898.92 3523,1891.5C 3522.33,1828.17 3522.33,1764.83 3523,1701.5C 3523.11,1676.8 3531.94,1655.97 3549.5,1639C 3558.86,1632.05 3569.19,1627.55 3580.5,1625.5 Z M 3582.5,1636.5 C 3626.12,1632.95 3650.29,1652.95 3655,1696.5C 3655.98,1765.53 3655.64,1834.53 3654,1903.5C 3645.53,1945.6 3620.03,1962.77 3577.5,1955C 3560.34,1949.85 3548.18,1939.02 3541,1922.5C 3537.85,1913.76 3535.85,1904.76 3535,1895.5C 3534.03,1826.81 3534.36,1758.14 3536,1689.5C 3539.78,1661.24 3555.28,1643.57 3582.5,1636.5 Z"/></g>
<g><path style="opacity:0.934" fill="#000000" d="M 2806.5,1627.5 C 2811.83,1627.5 2817.17,1627.5 2822.5,1627.5C 2850.17,1740.17 2877.83,1852.83 2905.5,1965.5C 2901.5,1965.5 2897.5,1965.5 2893.5,1965.5C 2887.32,1939.13 2880.99,1912.8 2874.5,1886.5C 2834.83,1886.33 2795.17,1886.5 2755.5,1887C 2748.77,1912.41 2742.27,1937.91 2736,1963.5C 2734.3,1964.73 2732.3,1965.4 2730,1965.5C 2728.17,1965.33 2726.33,1965.17 2724.5,1965C 2751.91,1852.51 2779.25,1740.01 2806.5,1627.5 Z M 2813.5,1642.5 C 2833.07,1720.26 2852.73,1798.09 2872.5,1876C 2834.17,1876.5 2795.83,1876.67 2757.5,1876.5C 2776.48,1798.57 2795.15,1720.57 2813.5,1642.5 Z"/></g>
<g><path style="opacity:0.895" fill="#000000" d="M 2941.5,1628.5 C 2945.5,1628.5 2949.5,1628.5 2953.5,1628.5C 2953.02,1720.19 2953.52,1811.86 2955,1903.5C 2961.44,1943.14 2984.6,1960.64 3024.5,1956C 3044.15,1951.68 3057.65,1940.18 3065,1921.5C 3066.65,1916.25 3067.98,1910.91 3069,1905.5C 3070.48,1813.19 3070.98,1720.86 3070.5,1628.5C 3074.5,1628.5 3078.5,1628.5 3082.5,1628.5C 3082.67,1714.83 3082.5,1801.17 3082,1887.5C 3081.81,1905.12 3077.81,1921.79 3070,1937.5C 3056.69,1958.83 3037.35,1968.83 3012,1967.5C 2975.69,1966.86 2953.36,1948.86 2945,1913.5C 2943.44,1905.91 2942.44,1898.24 2942,1890.5C 2941.5,1803.17 2941.33,1715.83 2941.5,1628.5 Z"/></g>
<g><path style="opacity:0.94" fill="#000000" d="M 3287.5,1628.5 C 3340.17,1628.5 3392.83,1628.5 3445.5,1628.5C 3445.5,1631.83 3445.5,1635.17 3445.5,1638.5C 3421.17,1638.5 3396.83,1638.5 3372.5,1638.5C 3372.5,1747.5 3372.5,1856.5 3372.5,1965.5C 3368.5,1965.5 3364.5,1965.5 3360.5,1965.5C 3360.5,1856.5 3360.5,1747.5 3360.5,1638.5C 3336.17,1638.5 3311.83,1638.5 3287.5,1638.5C 3287.5,1635.17 3287.5,1631.83 3287.5,1628.5 Z"/></g>
<g><path style="opacity:0.978" fill="#000000" d="M 3474.5,1628.5 C 3478.17,1628.5 3481.83,1628.5 3485.5,1628.5C 3485.5,1740.83 3485.5,1853.17 3485.5,1965.5C 3481.83,1965.5 3478.17,1965.5 3474.5,1965.5C 3474.5,1853.17 3474.5,1740.83 3474.5,1628.5 Z"/></g>
<g><path style="opacity:0.929" fill="#000000" d="M 3704.5,1628.5 C 3709.87,1628.17 3715.21,1628.51 3720.5,1629.5C 3759.43,1732.46 3798.26,1835.46 3837,1938.5C 3837.5,1835.17 3837.67,1731.83 3837.5,1628.5C 3841.17,1628.5 3844.83,1628.5 3848.5,1628.5C 3848.5,1740.83 3848.5,1853.17 3848.5,1965.5C 3843.35,1966.07 3838.52,1965.41 3834,1963.5C 3794.47,1858.58 3755.14,1753.58 3716,1648.5C 3715.5,1754.17 3715.33,1859.83 3715.5,1965.5C 3711.83,1965.5 3708.17,1965.5 3704.5,1965.5C 3704.5,1853.17 3704.5,1740.83 3704.5,1628.5 Z"/></g>
<g><path style="opacity:0.981" fill="#e7e7e8" d="M 1152.5,1709.5 C 1149.5,1729.48 1146.33,1749.48 1143,1769.5C 1139.73,1787.9 1130.57,1802.4 1115.5,1813C 1109.53,1816.27 1103.2,1818.43 1096.5,1819.5C 1099.82,1811.38 1102.65,1803.05 1105,1794.5C 1108.13,1777.96 1110.47,1761.29 1112,1744.5C 1113.33,1738.5 1114.67,1732.5 1116,1726.5C 1122.74,1709.72 1134.91,1704.05 1152.5,1709.5 Z"/></g>
<g><path style="opacity:0.981" fill="#e7e8e8" d="M 1606.5,1817.5 C 1607.17,1817.5 1607.5,1817.83 1607.5,1818.5C 1608.17,1818.5 1608.5,1818.83 1608.5,1819.5C 1611.74,1825.64 1615.24,1831.64 1619,1837.5C 1626.23,1847.2 1635.73,1853.53 1647.5,1856.5C 1656.82,1868.45 1664.65,1881.45 1671,1895.5C 1687.05,1939.05 1673.55,1969.05 1630.5,1985.5C 1640.26,1965.63 1641.09,1945.3 1633,1924.5C 1625.36,1907.55 1615.36,1892.21 1603,1878.5C 1566.26,1838.54 1521.43,1812.04 1468.5,1799C 1430.75,1790.88 1396.42,1798.21 1365.5,1821C 1305.8,1852.46 1242.8,1874.79 1176.5,1888C 1164.51,1890.28 1152.51,1892.44 1140.5,1894.5C 1129.98,1888.98 1119.98,1882.65 1110.5,1875.5C 1182.65,1868.7 1252.99,1853.54 1321.5,1830C 1343.74,1822.03 1365.41,1812.7 1386.5,1802C 1402.5,1793 1418.5,1784 1434.5,1775C 1464.12,1765.23 1493.79,1765.23 1523.5,1775C 1553.79,1784.47 1581.45,1798.64 1606.5,1817.5 Z"/></g>
<g><path style="opacity:0.996" fill="#ec2028" d="M 1630.5,1985.5 C 1621.29,1998.19 1609.29,2007.36 1594.5,2013C 1566.67,2022.64 1538,2027.97 1508.5,2029C 1442.66,2031.35 1377.99,2023.69 1314.5,2006C 1233.18,1983.9 1155.84,1952.23 1082.5,1911C 1078.95,1908.73 1075.62,1906.23 1072.5,1903.5C 1095.19,1900.66 1117.85,1897.66 1140.5,1894.5C 1152.51,1892.44 1164.51,1890.28 1176.5,1888C 1242.8,1874.79 1305.8,1852.46 1365.5,1821C 1396.42,1798.21 1430.75,1790.88 1468.5,1799C 1521.43,1812.04 1566.26,1838.54 1603,1878.5C 1615.36,1892.21 1625.36,1907.55 1633,1924.5C 1641.09,1945.3 1640.26,1965.63 1630.5,1985.5 Z"/></g>
<g><path style="opacity:0.982" fill="#e5e7e8" d="M 2089.5,1932.5 C 2086.64,1938.91 2084.47,1945.58 2083,1952.5C 2080.59,1966.59 2083.09,1979.59 2090.5,1991.5C 2096.42,1989.52 2102.42,1987.85 2108.5,1986.5C 2107.54,2011.36 2101.7,2035.02 2091,2057.5C 2047.25,2145.45 1985.75,2218.61 1906.5,2277C 1882.15,2294.68 1855.82,2309.01 1827.5,2320C 1814.83,2324.58 1801.83,2327.75 1788.5,2329.5C 1842.48,2315.43 1886.64,2286.43 1921,2242.5C 1957.83,2189.52 1992.17,2134.85 2024,2078.5C 2038.29,2052.59 2050.95,2025.92 2062,1998.5C 2075.7,1960.67 2069.37,1926.67 2043,1896.5C 2008.93,1862.14 1967.76,1848.31 1919.5,1855C 1898.43,1858.58 1878.76,1865.91 1860.5,1877C 1847.42,1885.25 1835.09,1894.42 1823.5,1904.5C 1853.07,1876.21 1885.74,1852.04 1921.5,1832C 1983.04,1798.91 2029.87,1813.08 2062,1874.5C 2071.49,1893.8 2080.65,1913.14 2089.5,1932.5 Z"/></g>
<g><path style="opacity:0.996" fill="#050708" d="M 1788.5,2329.5 C 1752.81,2338.91 1717.14,2338.74 1681.5,2329C 1657.91,2322.37 1639.08,2309.21 1625,2289.5C 1611.27,2263.54 1611.27,2237.54 1625,2211.5C 1636.77,2192.2 1651.27,2175.03 1668.5,2160C 1704.29,2130.22 1742.29,2103.55 1782.5,2080C 1816.6,2059.95 1851.6,2041.45 1887.5,2024.5C 1889.03,2024.57 1890.03,2023.91 1890.5,2022.5C 1890.84,2021.66 1891.51,2021.33 1892.5,2021.5C 1899.72,2018.82 1906.72,2015.65 1913.5,2012C 1908.91,2012.07 1904.57,2013.23 1900.5,2015.5C 1899.51,2015.33 1898.84,2015.66 1898.5,2016.5C 1841.68,2030.31 1784.01,2038.14 1725.5,2040C 1706.34,2040.78 1687.17,2041.28 1668,2041.5C 1657.44,2041.62 1646.94,2041.12 1636.5,2040C 1650.41,2031.89 1663.75,2023.05 1676.5,2013.5C 1682.47,2011.18 1687.8,2007.85 1692.5,2003.5C 1737.56,1972.45 1781.23,1939.45 1823.5,1904.5C 1835.09,1894.42 1847.42,1885.25 1860.5,1877C 1878.76,1865.91 1898.43,1858.58 1919.5,1855C 1967.76,1848.31 2008.93,1862.14 2043,1896.5C 2069.37,1926.67 2075.7,1960.67 2062,1998.5C 2050.95,2025.92 2038.29,2052.59 2024,2078.5C 1992.17,2134.85 1957.83,2189.52 1921,2242.5C 1886.64,2286.43 1842.48,2315.43 1788.5,2329.5 Z"/></g>
<g><path style="opacity:0.632" fill="#d9dbdb" d="M 1692.5,2003.5 C 1687.8,2007.85 1682.47,2011.18 1676.5,2013.5C 1674.66,2013.36 1674.33,2012.69 1675.5,2011.5C 1681.07,2008.55 1686.73,2005.88 1692.5,2003.5 Z"/></g>
<g><path style="opacity:0.769" fill="#d3d4d5" d="M 1892.5,2021.5 C 1894.5,2019.83 1896.5,2018.17 1898.5,2016.5C 1899.49,2016.67 1900.16,2016.34 1900.5,2015.5C 1904.57,2013.23 1908.91,2012.07 1913.5,2012C 1906.72,2015.65 1899.72,2018.82 1892.5,2021.5 Z"/></g>
<g><path style="opacity:0.976" fill="#7b7b7a" d="M 1890.5,2022.5 C 1890.03,2023.91 1889.03,2024.57 1887.5,2024.5C 1887.97,2023.09 1888.97,2022.43 1890.5,2022.5 Z"/></g>
</svg>
